<svg width="41" height="40" viewBox="0 0 41 40" fill="none" xmlns="http://www.w3.org/2000/svg">
<g id="Frame">
<g id="Layer 2">
<g id="Interface-Solid">
<g id="interface-solid-multimedia-play-button-1">
<path id="Vector" d="M19 2C15.4399 2 11.9598 3.05568 8.99974 5.03355C6.03966 7.01141 3.73255 9.82263 2.37018 13.1117C1.0078 16.4008 0.651339 20.02 1.34587 23.5116C2.04041 27.0033 3.75474 30.2106 6.27208 32.7279C8.78943 35.2453 11.9967 36.9596 15.4884 37.6541C18.98 38.3487 22.5992 37.9922 25.8883 36.6298C29.1774 35.2674 31.9886 32.9603 33.9665 30.0003C35.9443 27.0402 37 23.5601 37 20C36.9948 15.2277 35.0967 10.6524 31.7222 7.27783C28.3476 3.90331 23.7723 2.00521 19 2ZM19 35C16.0333 35 13.1332 34.1203 10.6665 32.472C8.19972 30.8238 6.27713 28.4811 5.14181 25.7402C4.0065 22.9994 3.70945 19.9834 4.28823 17.0736C4.86701 14.1639 6.29562 11.4912 8.3934 9.3934C10.4912 7.29561 13.1639 5.867 16.0736 5.28822C18.9834 4.70944 21.9994 5.00649 24.7403 6.14181C27.4811 7.27712 29.8238 9.19971 31.472 11.6664C33.1203 14.1332 34 17.0333 34 20C33.9955 23.9769 32.4137 27.7896 29.6017 30.6017C26.7896 33.4137 22.9769 34.9955 19 35Z" fill="#E25300"/>
<path id="Vector_2" d="M24.9613 18.0312L18.1855 13.3016C17.8257 13.0506 17.4039 12.9031 16.9661 12.875C16.5283 12.8469 16.0911 12.9394 15.7021 13.1423C15.3132 13.3453 14.9873 13.6509 14.7598 14.0261C14.5324 14.4013 14.4121 14.8316 14.4121 15.2703V24.7297C14.4118 25.1686 14.5319 25.5991 14.7592 25.9745C14.9866 26.3499 15.3125 26.6557 15.7016 26.8587C16.0907 27.0617 16.5281 27.1541 16.966 27.1258C17.404 27.0976 17.8258 26.9497 18.1855 26.6984L24.9613 21.9687V21.9675C25.2783 21.7463 25.5371 21.4519 25.7158 21.1092C25.8945 20.7666 25.9879 20.3858 25.9879 19.9993C25.9879 19.6129 25.8945 19.2321 25.7158 18.8894C25.5371 18.5468 25.2783 18.2524 24.9613 18.0312Z" fill="#E25300"/>
</g>
</g>
</g>
</g>
</svg>
